<svg xmlns="http://www.w3.org/2000/svg" width="1296" viewBox="0 0 1296 1728" height="1728" version="1.0"><defs><clipPath id="a"><path d="M 333.578125 140 L 962.078125 140 L 962.078125 1589.863281 L 333.578125 1589.863281 Z M 333.578125 140"/></clipPath></defs><g clip-path="url(#a)"><path d="M 540.480469 1485.953125 C 554.480469 1489.304688 550.445312 1514.15625 546.261719 1525.722656 C 504.945312 1561.839844 451.113281 1589.699219 394.695312 1592.058594 C 413.109375 1566.40625 457.316406 1565.035156 486.417969 1550.195312 C 507.761719 1548.710938 509.585938 1518.644531 531.464844 1520.625 C 538.613281 1511.109375 536.523438 1497.105469 540.480469 1485.953125 Z M 841.105469 165.726562 C 863.511719 177.980469 859.59375 212.082031 863.09375 234.574219 C 847.800781 227.875 848.179688 207.476562 840.535156 194.5 C 840.230469 208.542969 842.246094 222.433594 843.273438 236.398438 C 825.925781 238.570312 822.613281 216.914062 813.484375 206.675781 C 815.691406 223.765625 823.335938 239.367188 828.207031 255.730469 C 808.15625 264.941406 793.585938 239.632812 775.515625 234.078125 C 784.417969 259.726562 803.554688 279.441406 825.429688 294.703125 C 811.46875 302.425781 796.097656 307.375 782.898438 316.394531 C 824.363281 357.496094 874.507812 315.214844 916.089844 299.039062 C 928.53125 375.953125 953.636719 450.507812 965.203125 527.722656 C 958.128906 523.84375 951.925781 512.386719 943.101562 518.589844 C 887.097656 543.707031 834.21875 575.027344 779.546875 602.46875 C 759.574219 696.925781 793.28125 799.714844 754.136719 892.003906 C 743.214844 1071.628906 721.683594 1250.765625 711.90625 1430.355469 C 746.109375 1430.355469 721.152344 1468.105469 709.167969 1482.453125 C 737.167969 1499.882812 758.167969 1526.828125 775.820312 1554.191406 C 787.957031 1571.582031 746.222656 1563.402344 764.066406 1581.210938 C 730.472656 1590.648438 702.546875 1559.59375 675.953125 1543.574219 C 663.210938 1539.957031 661.914062 1507.800781 676.792969 1523.289062 C 700.226562 1538.738281 729.367188 1571.582031 758.777344 1552.667969 C 747.628906 1536.570312 735.226562 1520.890625 720.199219 1508.292969 C 708.445312 1528.769531 673.367188 1503.917969 696.917969 1487.058594 C 691.78125 1480.054688 657.578125 1469.820312 659.671875 1491.96875 C 651.53125 1482.414062 640.914062 1476.023438 629.464844 1471.339844 C 622.121094 1453.683594 650.351562 1461.179688 660.015625 1463.730469 C 678.769531 1465.746094 718.222656 1474.878906 716.355469 1445.195312 C 683.105469 1445.007812 650.84375 1458.171875 617.707031 1455.320312 C 625.28125 1447.746094 643.882812 1449.953125 642.550781 1436.136719 C 633.191406 1294.414062 612.992188 1153.644531 599.371094 1012.300781 C 577.382812 1153.148438 551.132812 1293.617188 529.523438 1434.351562 C 544.132812 1442.226562 556.839844 1461.332031 543.5625 1478 C 518.527344 1490.523438 489.121094 1480.703125 462.71875 1487.78125 C 472.875 1488.886719 483.148438 1489.074219 493.378906 1490.484375 C 500.988281 1504.867188 460.929688 1489.570312 477.289062 1502.472656 C 491.363281 1514.460938 461.765625 1502.625 454.234375 1506.503906 C 427.109375 1523.859375 404.8125 1548.863281 390.777344 1577.9375 C 381.074219 1571.542969 380.65625 1558.414062 387.125 1549.546875 C 404.660156 1522.640625 432.929688 1505.59375 459.976562 1489.570312 C 439.699219 1484.621094 430 1442.796875 459.902344 1454.558594 C 443.960938 1264.539062 458.34375 1073.6875 456.59375 883.363281 C 430.113281 888.386719 450.316406 855.316406 445.941406 840.4375 C 433.15625 769.347656 366.617188 726.949219 333.253906 667.011719 C 385.5625 692.738281 404.089844 759.148438 451.796875 788.679688 C 462.449219 782.285156 470.363281 771.667969 477.210938 761.390625 C 471.164062 720.898438 452.75 682.460938 449.859375 641.4375 C 479.152344 602.734375 468.765625 550.710938 460.433594 506.527344 C 457.582031 495.832031 441.566406 475.625 434.109375 493.09375 C 401.464844 549.035156 380.125 612.589844 341.773438 664.957031 C 358.703125 599.308594 399.257812 542.109375 432.128906 483.464844 C 460.851562 463.371094 493.152344 445.636719 526.707031 434.789062 C 508.027344 457.203125 476.871094 462.949219 453.433594 479.238281 C 456.933594 500.664062 467.664062 464.246094 475.957031 483.957031 C 498.820312 526.886719 507.152344 579.175781 499.808594 627.050781 C 496.460938 640.980469 494.179688 624.351562 491.628906 618.488281 C 469.679688 624.578125 452.40625 651.292969 464.503906 673.023438 C 494.140625 667.316406 524.082031 649.316406 554.707031 659.855469 C 578.601562 667.085938 607.054688 667.050781 626.800781 683.527344 C 641.789062 720.671875 601.464844 752.601562 601.921875 787.765625 C 654.574219 790.316406 708.027344 788.183594 760.03125 799.980469 C 766.691406 745.105469 753.109375 688.246094 763.492188 632.796875 C 773.957031 612.550781 729.445312 601.097656 734.960938 626.671875 C 720.617188 620.621094 714.417969 605.359375 710.878906 591.316406 C 701.0625 547.054688 703.574219 498.570312 729.179688 459.945312 C 705.019531 453.703125 680.863281 443.695312 655.714844 443.882812 C 635.058594 469.914062 621.207031 500.703125 602.71875 528.292969 C 595.949219 541.652344 582.097656 556.074219 589.25 571.984375 C 615.464844 535.488281 624.367188 482.359375 662.601562 453.359375 C 648.257812 508.921875 582.554688 553.867188 604.851562 615.292969 C 573.121094 564.789062 538.273438 514.328125 514.53125 459.527344 C 543.027344 481.867188 557.828125 524.261719 582.59375 553.261719 C 568.9375 509.609375 519.210938 476.917969 534.695312 425.882812 C 489.347656 402.097656 450.351562 366.859375 436.390625 315.976562 C 437.265625 330.398438 442.554688 343.871094 447.308594 357.304688 C 424.40625 348.019531 422.65625 314.148438 428.78125 293.828125 C 450.277344 301.589844 432.890625 270.117188 437.492188 258.851562 C 449.859375 269.433594 448.144531 286.976562 452.671875 301.285156 C 468.574219 277.882812 499.65625 275.027344 524.730469 267.566406 C 546.148438 262.886719 537.742188 288.726562 536.484375 300.867188 C 548.621094 297.214844 572.816406 277.765625 578.332031 296.453125 C 545.3125 294.96875 526.554688 332.492188 493.226562 324.652344 C 502.96875 308.363281 531.996094 305.816406 525.375 279.554688 C 504.453125 282.484375 483.488281 286.976562 463.933594 295.007812 C 467.585938 306.5 472.914062 317.421875 476.488281 329.03125 C 469.148438 320.3125 454.15625 306.195312 450.238281 325.300781 C 464.617188 381.929688 522.75 404.875 567.644531 432.621094 C 588.796875 426.265625 616.796875 428.359375 629.351562 406.703125 C 647.648438 380.902344 668.308594 356.011719 681.699219 327.203125 C 678.199219 311.371094 673.175781 295.347656 676.144531 278.640625 C 663.132812 287.964844 648.601562 308.820312 653.242188 279.289062 C 635.550781 271.257812 583.164062 273.3125 599.257812 309.847656 C 618.925781 307.871094 638.101562 300.5625 658.1875 302.277344 C 653.585938 320.238281 624.632812 316.46875 609.1875 322.253906 C 580.84375 331.691406 589.519531 293.558594 588.222656 276.851562 C 611.773438 270.382812 651.644531 258.054688 666.632812 275.710938 C 681.320312 269.128906 696.800781 254.628906 712.324219 255.351562 C 724.726562 278.527344 712.097656 311.980469 692.046875 328.421875 C 668.574219 367.164062 646.242188 407.996094 611.886719 438.519531 C 615.464844 448.335938 622.199219 456.710938 628.550781 464.929688 C 640.878906 452.144531 650.769531 429.195312 672.570312 435.777344 C 701.140625 442.210938 735.875 440.878906 758.128906 462.113281 C 744.777344 508.085938 721.457031 567.453125 759.15625 607.871094 C 769.769531 621.113281 766.386719 597.480469 774.144531 593.523438 C 834.523438 566.921875 887.0625 524.71875 949.757812 503.253906 C 938.761719 451.609375 927.730469 399.777344 915.785156 348.363281 C 897.484375 357.496094 879.453125 367.238281 861.382812 376.714844 C 858.300781 406.398438 860.011719 436.730469 861.34375 466.566406 C 828.585938 444.761719 790.351562 483.691406 756.914062 474.140625 C 785.941406 459.296875 819.570312 456.59375 849.664062 444.265625 C 856.742188 413.894531 846.695312 382.574219 852.363281 352.054688 C 863.96875 347.144531 855.332031 373.480469 867.390625 363.089844 C 884.472656 351.40625 928.949219 343.035156 906.007812 315.59375 C 893.527344 320.886719 903.457031 327.429688 909.851562 333.40625 C 901.632812 335.269531 890.75 339.078125 891.019531 326.859375 C 855.027344 349.007812 799.445312 352.546875 767.984375 320.199219 C 762.542969 300.296875 789.25 298.242188 801.652344 291.085938 C 784 270.917969 760.070312 248.273438 761.667969 219.617188 C 787.425781 210.40625 804.621094 237.386719 819.875 253.296875 C 810.210938 229.167969 798.226562 204.203125 799.863281 177.601562 C 820.21875 169.304688 823.945312 198.914062 832.277344 211.242188 C 834.902344 196.554688 827.066406 175.660156 841.105469 165.726562 Z M 639.46875 1498.132812 C 646.621094 1497.789062 649.855469 1504.964844 652.746094 1513.523438 C 655.601562 1522.082031 658.113281 1532.023438 663.742188 1537.21875 C 643.464844 1556.054688 630.644531 1514.039062 639.46875 1498.132812 Z M 476.601562 1456.957031 C 467.851562 1459.277344 443.085938 1461.179688 458.949219 1471.722656 C 484.136719 1472.292969 510.5 1471.304688 535.417969 1466.128906 C 531.765625 1445.082031 494.21875 1458.972656 476.601562 1456.957031 Z M 643.921875 866.695312 C 632.621094 865.742188 628.703125 873.125 631.253906 883.476562 C 668.191406 888.804688 709.890625 879.558594 743.332031 899.308594 C 693.226562 897.484375 642.019531 889.074219 593.019531 903.722656 C 554.859375 886.980469 513.621094 905.246094 474.246094 907.339844 C 501.675781 885.417969 544.4375 892.34375 578.410156 886.75 C 574.832031 880.625 571.636719 870.652344 562.695312 873.089844 C 530.167969 875.296875 497.527344 877.578125 465.378906 882.871094 C 468.652344 1072.238281 465.304688 1261.953125 472.304688 1451.246094 C 486.761719 1450.257812 501.40625 1447.746094 514.800781 1441.960938 C 529.597656 1302.367188 565.398438 1166.164062 587.996094 1027.828125 C 590.621094 1010.511719 594.539062 992.703125 605.6875 978.660156 C 615.65625 990.761719 605.761719 1008.496094 610.214844 1022.917969 C 630.949219 1162.015625 652.101562 1301.339844 658.683594 1442 C 670.628906 1441.199219 682.726562 1439.296875 693.910156 1434.617188 C 703.6875 1246.957031 732.144531 1060.785156 747.363281 873.582031 C 713.617188 866.199219 678.390625 863.269531 643.921875 866.695312 Z M 677.398438 967.660156 C 686.378906 967.164062 683.296875 977.210938 684.363281 983.074219 C 685.046875 1084.34375 683.222656 1185.648438 686.148438 1286.917969 C 687.40625 1328.210938 689.839844 1369.882812 683.675781 1410.90625 C 672.570312 1399.414062 676.523438 1381.832031 674.355469 1367.371094 C 670.820312 1234.132812 673.898438 1100.820312 677.398438 967.660156 Z M 522.027344 969.257812 L 524.195312 966.441406 C 521.457031 1011.3125 516.320312 1056.179688 517.042969 1101.238281 C 518.90625 1201.710938 506.46875 1301.683594 503.917969 1402 C 489.386719 1398.917969 493.761719 1378.976562 490.945312 1367.710938 C 488.054688 1276.148438 504.414062 1185.304688 506.960938 1093.894531 C 512.480469 1052.714844 505.820312 1007.808594 522.027344 969.257812 Z M 585.980469 869.359375 C 587.730469 876.550781 592.332031 883.230469 597.886719 886.117188 C 603.402344 888.996094 609.871094 888.082031 615.386719 880.089844 C 615.769531 863.15625 597.050781 869.015625 585.980469 869.359375 Z M 458.226562 833.890625 C 457.125 840.359375 456.058594 846.855469 455.296875 853.382812 C 454.5 859.910156 453.96875 866.46875 453.851562 873.050781 C 477.933594 877.960938 461.460938 846.90625 458.226562 833.890625 Z M 476.03125 828.714844 C 470.972656 834.859375 470.023438 846.078125 472.609375 855.296875 C 475.15625 864.519531 481.28125 871.738281 490.300781 869.890625 C 522.941406 872.671875 490.148438 828.90625 476.03125 828.714844 Z M 509.738281 843.746094 C 508.066406 853.546875 510.996094 860.003906 516.433594 863.460938 C 521.875 866.917969 529.902344 867.359375 538.425781 865.136719 C 541.277344 845.269531 527.808594 837.695312 509.738281 843.746094 Z M 593.664062 809.382812 C 585.902344 819.316406 596.0625 840.816406 593.4375 855.089844 C 578.371094 850.824219 585.179688 829.78125 583.925781 817.640625 C 568.328125 831.796875 530.550781 832.328125 544.4375 861.40625 C 574.261719 858.894531 604.050781 855.390625 634.105469 856.535156 C 633.800781 846.296875 632.242188 836.171875 632.164062 825.972656 C 641.5625 836.210938 638.59375 859.160156 658.035156 854.289062 C 678.617188 859.84375 667.050781 837.582031 667.621094 826.011719 C 680.328125 828.03125 674.890625 844.011719 678.390625 853.070312 C 688.546875 854.667969 698.972656 854.667969 709.28125 853.453125 C 709.507812 843.214844 708.75 832.863281 711.183594 822.855469 C 720.769531 829.132812 713.582031 843.367188 716.167969 852.996094 C 726.476562 855.964844 737.320312 857.523438 748.164062 857.027344 C 753.449219 842.984375 755.960938 827.878906 756.457031 812.882812 C 702.625 806.148438 647.761719 805.804688 593.664062 809.382812 Z M 574.679688 784.226562 C 553.910156 789.136719 543.027344 829.09375 516.550781 814.023438 C 525.183594 806.222656 535.039062 799.980469 544.246094 792.863281 C 523.890625 796.554688 489.996094 797.46875 493.378906 826.429688 C 530.359375 823.84375 571.179688 817.5625 597.203125 788.296875 C 589.785156 786.394531 582.328125 784.339844 574.679688 784.226562 Z M 499.164062 760.058594 C 480.558594 774.40625 465.265625 792.523438 449.402344 809.6875 C 463.78125 831.570312 487.523438 806.679688 501.140625 796.0625 C 515.140625 789.210938 506.429688 762.535156 499.164062 760.058594 Z M 491.171875 770.753906 C 498.441406 766.949219 502.433594 771.566406 503.042969 777.042969 C 503.652344 782.523438 500.800781 788.871094 494.332031 788.527344 C 484.628906 790.734375 481.28125 772.164062 491.171875 770.753906 Z M 560.414062 684.136719 C 544.894531 684.402344 546.792969 702.328125 542.839844 713.097656 C 547.515625 707.3125 552.347656 701.605469 558.019531 696.695312 C 552.347656 715.914062 549 738.785156 533.515625 752.675781 C 543.140625 704.039062 501.292969 794.921875 538.234375 779.773438 C 543.675781 756.519531 545.5 731.023438 561.972656 712.070312 C 575.0625 698.21875 593.171875 673.632812 560.414062 684.136719 Z M 602.109375 695.78125 C 578.867188 713.363281 570.191406 748.871094 558.589844 775.890625 C 578.980469 757.511719 577.992188 723.679688 601.386719 707.65625 C 596.441406 731.402344 578.296875 749.824219 573.882812 773.761719 C 589.328125 779.925781 603.175781 747.160156 582.214844 762.496094 C 588.222656 738.023438 610.023438 719.910156 612.003906 694.566406 C 609.53125 694.867188 604.582031 695.476562 602.109375 695.78125 Z M 526.402344 672.566406 C 507.191406 674.546875 487.902344 676.296875 468.957031 679.949219 C 476.945312 703.433594 478.429688 728.855469 489.578125 751.308594 C 497.71875 745.523438 507.113281 735.019531 512.136719 749.859375 C 520.238281 728.585938 529.597656 707.578125 535.039062 685.394531 C 536.75 679.644531 534.164062 669.410156 526.402344 672.566406 Z M 540.289062 718.386719 C 536.179688 721.738281 534.886719 724.160156 535.113281 725.726562 C 535.382812 727.289062 537.09375 727.992188 538.917969 727.90625 C 542.570312 727.730469 546.71875 724.382812 540.289062 718.386719 Z M 487.484375 604.066406 C 482.425781 605.816406 480.636719 607.566406 480.558594 608.988281 C 480.484375 610.410156 482.15625 611.503906 484.097656 611.941406 C 488.015625 612.820312 493.039062 611.066406 487.484375 604.066406 Z M 726.019531 586.140625 C 726.210938 590.898438 725.753906 596.757812 726.972656 601.136719 C 728.226562 605.511719 731.15625 608.402344 738.117188 607.222656 C 734.847656 599.765625 730.699219 592.726562 726.019531 586.140625 Z M 487.21875 584.808594 C 483.300781 587.160156 482.195312 588.972656 482.539062 590.210938 C 482.878906 591.453125 484.667969 592.121094 486.496094 592.171875 C 490.183594 592.28125 494.066406 589.925781 487.21875 584.808594 Z M 722.863281 573.277344 C 721.378906 576.105469 721.417969 577.554688 722.101562 578.128906 C 722.824219 578.707031 724.195312 578.410156 725.375 577.746094 C 727.695312 576.40625 729.179688 573.582031 722.863281 573.277344 Z M 479.648438 537.277344 C 477.023438 540.980469 476.679688 543.160156 477.441406 544.269531 C 478.199219 545.382812 480.027344 545.417969 481.699219 544.828125 C 485.011719 543.640625 487.636719 539.941406 479.648438 537.277344 Z M 738.804688 462.417969 C 727.046875 484.527344 724.613281 510.40625 722.328125 534.953125 C 731.195312 511.625 741.125 488.601562 748.808594 464.855469 C 745.460938 463.75 742.113281 462.949219 738.804688 462.417969 Z M 586.855469 479.695312 C 585.828125 488.144531 584.761719 496.699219 584.457031 505.246094 C 584.117188 513.792969 584.535156 522.339844 586.398438 530.769531 C 606.03125 518.210938 595.871094 495.527344 586.855469 479.695312 Z M 472.039062 517.257812 C 468.003906 521.863281 467.207031 524.761719 467.929688 526.371094 C 468.691406 527.984375 470.972656 528.300781 473.179688 527.746094 C 477.59375 526.640625 481.585938 522.035156 472.039062 517.257812 Z M 609.832031 463.332031 C 603.328125 468.050781 599.867188 474.457031 599.066406 481.300781 C 598.230469 488.152344 600.09375 495.453125 604.242188 501.960938 C 615.691406 491.417969 636.882812 462.609375 609.832031 463.332031 Z M 566.691406 464.96875 C 563.421875 471.609375 564.027344 478.089844 566.464844 484.148438 C 568.898438 490.210938 573.234375 495.851562 577.34375 500.816406 C 578.484375 487.839844 576.886719 474.140625 566.691406 464.96875 Z M 551.246094 435.4375 C 548.542969 440.953125 548.316406 446.675781 549.722656 452.097656 C 551.132812 457.515625 554.175781 462.648438 557.941406 466.984375 C 569.847656 453.742188 572.96875 437.605469 551.246094 435.4375 Z M 586.511719 439.585938 C 580.84375 442.648438 579.4375 451.628906 581.453125 458.082031 C 583.46875 464.542969 588.871094 468.46875 596.707031 461.429688 C 615.273438 455.71875 600.09375 435.894531 586.511719 439.585938 Z M 647.269531 421.851562 C 651.453125 425.121094 652.519531 427.578125 651.988281 429.214844 C 651.453125 430.851562 649.398438 431.667969 647.308594 431.667969 C 643.121094 431.667969 638.9375 428.394531 647.269531 421.851562 Z M 594.84375 349.503906 C 644.378906 343.300781 591.839844 423.21875 563.953125 394.449219 C 580.996094 385.847656 599.410156 376.941406 608.691406 359.132812 C 583.507812 359.511719 559.082031 366.019531 534.277344 369.292969 C 546.757812 349.808594 574.644531 353.308594 594.84375 349.503906 Z M 571.410156 313.84375 C 577.152344 312.53125 579.777344 315.605469 580.957031 319.933594 C 582.136719 324.261719 581.871094 329.847656 581.71875 333.558594 C 577.496094 328.609375 561.898438 319.019531 571.410156 313.84375 Z M 510.160156 289.375 C 518.035156 290.230469 512.59375 296.40625 504.488281 303.886719 C 496.347656 311.363281 485.542969 320.144531 482.613281 326.214844 C 478.429688 308.328125 492.085938 290.402344 510.160156 289.375 Z M 688.507812 272.933594 C 685.238281 280.164062 683.183594 289.449219 684.324219 297.542969 C 685.503906 305.636719 689.839844 312.53125 699.390625 314.984375 C 698.324219 300.257812 712.667969 271.335938 688.507812 272.933594 Z M 832.011719 294.09375 C 835.890625 294.910156 842.855469 295.882812 847.875 298.113281 C 852.898438 300.347656 855.941406 303.835938 851.945312 309.695312 C 843.613281 306.996094 836.007812 302.085938 832.011719 294.09375 Z M 628.511719 280.8125 C 644.871094 282.695312 643.882812 287.679688 637.113281 291.402344 C 630.300781 295.121094 617.671875 297.574219 610.707031 294.398438 C 608.652344 286.367188 622.046875 282.484375 628.511719 280.8125 Z M 897.410156 248.234375 C 905.359375 251.851562 908.746094 259.898438 910.800781 268.96875 C 912.816406 278.035156 913.425781 288.117188 915.824219 295.804688 C 896.496094 292.265625 893.035156 264.410156 897.410156 248.234375 Z M 640.421875 143.351562 C 665.113281 131.058594 663.96875 162.949219 662.449219 178.707031 C 676.867188 173.492188 705.402344 156.976562 708.824219 182.167969 C 707.226562 201.804688 707.339844 232.554688 688.089844 241.765625 C 685.503906 222.28125 691.171875 203.175781 692.199219 183.84375 C 677.4375 186.582031 663.398438 199.179688 648.105469 194.078125 C 644.835938 180.644531 649.171875 166.984375 649.703125 153.472656 C 628.285156 160.4375 612.421875 179.921875 589.898438 183.425781 C 578.332031 179.351562 573.386719 166.222656 565.019531 158.078125 C 547.480469 166.71875 540.023438 188.980469 520.734375 194.347656 C 507.191406 191.835938 498.898438 178.363281 486.761719 172.464844 C 470.324219 185.785156 476.03125 215.46875 455.109375 225.402344 C 442.136719 227.492188 430.722656 218.359375 418.660156 215.085938 C 417.027344 231.832031 419.234375 248.578125 419.613281 265.359375 C 406.5625 251.050781 402.910156 227.875 410.328125 210.214844 C 422.734375 194.042969 439.699219 218.207031 455.144531 214.707031 C 465.914062 200.320312 464.199219 179.238281 476.984375 166.488281 C 495.09375 155.910156 505.554688 179.351562 520.429688 183.5 C 538.082031 175.355469 545.042969 149.933594 566.082031 146.546875 C 577.230469 150.921875 582.25 163.445312 590.886719 171.207031 C 609.644531 166.90625 622.691406 150.429688 640.421875 143.351562 Z M 887.59375 174.136719 C 911.296875 183.347656 899.082031 229.585938 890.523438 250.707031 C 885.652344 237.539062 887.0625 222.660156 880.632812 210.0625 C 877.285156 220.453125 875.117188 231.148438 872.222656 241.652344 C 861.304688 221.214844 874.394531 191.566406 887.59375 174.136719 Z M 887.59375 174.136719"/></g></svg>